<svg viewBox="0 0 271.53 177.77" xmlns="http://www.w3.org/2000/svg"><path d="m267 33.35a50.5 50.5 0 0 0 -12.72-18.17 55.06 55.06 0 0 0 -19.61-11.28 77.4 77.4 0 0 0 -25.17-3.9h-147.22a79.49 79.49 0 0 0 -23.61 3.37 57.71 57.71 0 0 0 -19 9.74 49.84 49.84 0 0 0 -13.04 15.82 62.72 62.72 0 0 0 -6.63 21.68v7.52q2.36 24.87 19.72 37.76t47.28 12.85l-63.34 64.52a2.66 2.66 0 0 0 1.91 4.51h50.18a4.53 4.53 0 0 0 3.2-1.31l58.31-57.89a33.91 33.91 0 0 1 23.88-9.83h28.76a.07.07 0 0 0 0 0h11.52a6.46 6.46 0 0 0 6.46-6.45.68.68 0 0 0 0-.2v-26.09a.47.47 0 0 0 0-.17 6.46 6.46 0 0 0 -6.46-6.46 1.18 1.18 0 0 0 -.27 0 .07.07 0 0 0 0 0h-2.45a1.62 1.62 0 0 0 -.32 0h-108a31.77 31.77 0 0 1 -15.38-3.58c-4.32-2.34-6.5-6.11-6.5-11.3 0-5.35 2.18-9.21 6.5-11.54a31.55 31.55 0 0 1 15.3-3.51h131.15q10.91 0 16.75 5.7c3.88 3.86 5.8 9.44 5.8 16.86v53.73c0 7.45-2 13.07-5.84 16.87s-9.48 5.7-16.75 5.7h-51.09a21.59 21.59 0 0 0 -15.77 6.85l-25 28.15a2.69 2.69 0 0 0 2 4.46h97.95a80.24 80.24 0 0 0 25.17-3.76 54.11 54.11 0 0 0 19.6-11.17 50.23 50.23 0 0 0 12.73-18.29 64.17 64.17 0 0 0 4.54-24.9v-61.51a63.28 63.28 0 0 0 -4.54-24.78z" fill="#1a1b33"/></svg>