<?xml version="1.0" encoding="UTF-8" standalone="no"?>
<!DOCTYPE svg PUBLIC "-//W3C//DTD SVG 1.1//EN" "http://www.w3.org/Graphics/SVG/1.1/DTD/svg11.dtd">
<svg width="100%" height="100%" viewBox="0 0 245 245" version="1.1" xmlns="http://www.w3.org/2000/svg" xmlns:xlink="http://www.w3.org/1999/xlink" xml:space="preserve" xmlns:serif="http://www.serif.com/" style="fill-rule:evenodd;clip-rule:evenodd;stroke-linejoin:round;stroke-miterlimit:2;">
    <g transform="matrix(1,0,0,1,-2.53016,-272.121)">
        <g transform="matrix(1,0,0,1,0,269.582)">
            <g transform="matrix(1.59206,0,0,1.59206,-78.5218,-71.2845)">
                <path d="M104.384,196.867C104.257,196.865 104.13,196.862 104.003,196.858C91.717,196.532 80.438,192.136 71.466,184.971C58.941,174.969 50.91,159.57 50.91,142.311L50.91,100.936C50.91,70.82 75.361,46.37 105.477,46.37L146.852,46.37C164.129,46.37 179.541,54.417 189.542,66.964C196.974,76.288 201.418,88.097 201.418,100.936L201.418,126.394C201.417,126.419 201.415,126.445 201.413,126.47L201.413,126.393C201.369,127.126 201.076,127.792 200.617,128.307C200.074,128.913 199.302,129.309 198.437,129.358L150.522,129.358C147.279,129.358 144.252,130.287 141.692,131.895C139.569,133.228 137.767,135.029 136.431,137.151C134.818,139.714 133.885,142.746 133.885,145.995L133.885,193.892C133.785,195.551 132.407,196.867 130.723,196.867L104.384,196.867Z" style="fill:rgb(220,231,242);"/>
                <g transform="matrix(1,0,0,1,3.3432,3.3432)">
                    <path d="M201.418,142.311L201.418,183.858C201.418,191.038 195.589,196.867 188.409,196.867L142.139,196.867C140.391,196.867 138.971,195.448 138.971,193.699L138.971,147.429C138.971,140.249 144.8,134.42 151.98,134.42L198.251,134.42C199.935,134.42 201.314,135.737 201.413,137.396L201.413,143.106C201.416,142.842 201.418,142.577 201.418,142.311Z" style="fill:rgb(220,231,242);"/>
                </g>
            </g>
        </g>
    </g>
</svg>
